HIERARCHY
ROOT Hips
{
	OFFSET	0.000000	0.000000	0.000000
	CHANNELS 6 Xposition Yposition Zposition Zrotation Xrotation Yrotation
	JOINT LeftHip
	{
		OFFSET	4.250000	0.000000	0.000000
		CHANNELS 3 Zrotation Xrotation Yrotation
		JOINT LeftKnee
		{
			OFFSET	0.000000	-17.750000	0.000000
			CHANNELS 3 Zrotation Xrotation Yrotation
			JOINT LeftAnkle
			{
				OFFSET	0.000000	-17.750000	0.000000
				CHANNELS 3 Zrotation Xrotation Yrotation
				End Site
				{
					OFFSET	0.000000	-5.500000	-3.000000
				}
			}
		}
	}
	JOINT RightHip
	{
		OFFSET	-4.250000	0.000000	0.000000
		CHANNELS 3 Zrotation Xrotation Yrotation
		JOINT RightKnee
		{
			OFFSET	0.000000	-17.750000	0.000000
			CHANNELS 3 Zrotation Xrotation Yrotation
			JOINT RightAnkle
			{
				OFFSET	0.000000	-17.750000	0.000000
				CHANNELS 3 Zrotation Xrotation Yrotation
				End Site
				{
					OFFSET	0.000000	-5.500000	-3.000000
				}
			}
		}
	}
	JOINT Chest
	{
		OFFSET	0.000000	4.000000	-2.000000
		CHANNELS 3 Zrotation Xrotation Yrotation
		JOINT LeftCollar
		{
			OFFSET	0.000000	15.500000	2.000000
			CHANNELS 3 Zrotation Xrotation Yrotation
			JOINT LeftShoulder
			{
				OFFSET	8.500000	0.000000	0.000000
				CHANNELS 3 Zrotation Xrotation Yrotation
				JOINT LeftElbow
				{
					OFFSET	0.000000	-11.250000	0.000000
					CHANNELS 3 Zrotation Xrotation Yrotation
					JOINT LeftWrist
					{
						OFFSET	0.000000	-11.000000	0.000000
						CHANNELS 3 Zrotation Xrotation Yrotation
						End Site
						{
							OFFSET	0.000000	-8.000000	0.000000
						}
					}
				}
			}
		}
		JOINT RightCollar
		{
			OFFSET	0.000000	15.500000	2.000000
			CHANNELS 3 Zrotation Xrotation Yrotation
			JOINT RightShoulder
			{
				OFFSET	-8.500000	0.000000	0.000000
				CHANNELS 3 Zrotation Xrotation Yrotation
				JOINT RightElbow
				{
					OFFSET	0.000000	-11.250000	0.000000
					CHANNELS 3 Zrotation Xrotation Yrotation
					JOINT RightWrist
					{
						OFFSET	0.000000	-11.000000	0.000000
						CHANNELS 3 Zrotation Xrotation Yrotation
						End Site
						{
							OFFSET	0.000000	-8.000000	0.000000
						}
					}
				}
			}
		}
		JOINT Neck
		{
			OFFSET	0.000000	15.500000	2.000000
			CHANNELS 3 Zrotation Xrotation Yrotation
			JOINT Head
			{
				OFFSET	0.000000	6.000000	0.000000
				CHANNELS 3 Zrotation Xrotation Yrotation
				End Site
				{
					OFFSET	0.000000	8.500000	0.000000
				}
			}
		}
	}
}
MOTION
Frames:    16
Frame Time: 0.016667
2.309694	39.838280	-3.947037	2.027568	-5.951818	14.999785	-9.105915	-9.436222	-1.090293	2.000000	25.906906	0.000000	2.297807	-9.301023	-1.233321	-3.418947	-5.038167	-5.069586	-2.000000	30.567514	0.000000	5.074574	-15.160059	3.228839	1.726745	6.586236	8.385486	-2.016470	4.163367	-21.786261	13.840055	-12.555049	-5.572254	-3.000000	-63.484169	0.000000	-2.674038	-10.720524	51.188290	-7.059918	0.903358	22.143982	-42.662167	21.140865	-2.293674	3.000000	-10.037401	0.000000	11.850240	-2.403856	20.300982	0.041313	10.202358	-0.007174	0.041721	-19.799520	0.013842	
2.309963	39.776840	-3.956236	1.979167	-5.978292	15.361895	-9.117695	-9.987855	-1.160118	2.000000	26.450687	0.000000	2.373828	-9.559176	-1.228443	-3.420519	-5.222642	-5.087159	-2.000000	31.113466	0.000000	5.589641	-15.564082	3.270452	1.726745	6.586236	9.513415	-1.956686	4.312564	-21.778456	13.736723	-12.042965	-4.799038	-3.000000	-63.636730	0.000000	-2.267442	-10.566352	52.106998	-7.120505	1.052168	22.157240	-42.623001	20.497761	-2.308114	3.000000	-10.101980	0.000000	11.960162	-2.485293	20.819130	0.041476	10.283827	-0.007202	0.041528	-19.719856	0.013604	
2.309055	39.717384	-3.978969	1.924040	-5.996200	15.575647	-8.878276	-10.268954	-1.151352	2.000000	26.716784	0.000000	2.617553	-9.564502	-1.213053	-3.423834	-5.591589	-5.122335	-2.000000	31.828176	0.000000	5.845160	-15.728454	3.290941	1.959411	7.151277	10.594957	-1.956686	4.312564	-21.778456	13.552683	-11.120932	-3.655947	-3.000000	-63.570553	0.000000	-2.132299	-10.357484	52.667442	-7.120505	1.052168	22.157240	-42.593735	19.934805	-1.678175	3.000000	-10.039471	0.000000	11.830230	-2.298562	21.222311	0.041313	10.202358	-0.007174	0.041721	-19.799520	0.013842	
2.392965	39.674538	-4.129519	1.894151	-6.005030	15.718225	-8.886468	-10.636888	-1.196512	2.000000	26.747078	0.000000	3.088103	-9.611868	-1.343517	-3.589380	-5.958920	-5.174376	-2.000000	32.248402	0.000000	5.983609	-15.877952	3.136125	2.271058	7.475193	11.284897	-1.716922	4.476606	-21.778831	13.177940	-10.447731	-2.317997	-3.000000	-62.821396	0.000000	-1.774494	-10.429115	53.114651	-7.062205	1.336177	22.174021	-42.178932	18.818468	-1.789113	3.000000	-10.044412	0.000000	11.751225	-2.428218	21.963234	0.041313	10.202358	-0.007174	0.041721	-19.799520	0.013842	
2.542655	39.672573	-4.283684	1.902676	-5.993130	15.788625	-8.568815	-11.104122	-1.189902	2.000000	26.873077	0.000000	3.179929	-9.614591	-2.058292	-3.917485	-6.324184	-5.246418	-2.000000	32.631447	0.000000	6.018848	-15.893282	3.305717	2.425195	7.878937	11.710660	-1.716922	4.476606	-21.778831	12.765933	-9.568263	-1.622756	-3.000000	-62.071003	0.000000	-1.716567	-10.338078	53.354023	-7.062205	1.336177	22.174021	-41.418156	17.612459	-1.662647	3.000000	-9.924541	0.000000	11.698397	-2.514930	22.456911	0.041313	10.202358	-0.007174	0.041721	-19.799520	0.013842	
2.373953	39.686718	-4.149049	1.861274	-5.854590	15.785595	-8.404647	-11.107649	-1.158280	2.000000	26.846531	0.000000	3.669281	-9.584394	-2.904694	-4.086408	-6.875098	-5.323574	-2.000000	32.963577	0.000000	5.696544	-16.198088	3.622298	2.424199	8.040066	11.871930	-1.657118	4.625841	-21.771805	12.492140	-8.131143	-1.039264	-3.000000	-60.887436	0.000000	-1.755160	-10.398780	53.194458	-7.122892	1.484987	22.187288	-40.811905	16.136467	-1.346361	3.000000	-9.816020	0.000000	11.793293	-2.529763	22.970011	0.041313	10.202358	-0.007174	0.041721	-19.799520	0.013842	
2.264974	39.689156	-4.364814	1.794050	-5.635118	15.781650	-8.417145	-11.660082	-1.221597	2.000000	26.799398	0.000000	3.771750	-9.445479	-3.695211	-4.337528	-7.424467	-5.897913	-2.000000	33.183418	0.000000	5.914516	-16.220886	3.888851	2.422703	8.281761	12.758372	-1.507003	4.566060	-21.783834	12.492605	-6.856292	-0.191305	-3.000000	-59.520142	0.000000	-1.910543	-10.641188	52.555428	-6.973637	1.545831	22.183340	-40.248940	14.472381	-1.296480	3.000000	-9.708332	0.000000	11.886961	-2.541765	23.483015	0.041313	10.202358	-0.007174	0.041721	-19.799520	0.013842	
2.129425	39.686600	-4.263610	1.698516	-5.338849	15.770027	-8.258986	-11.939994	-1.219290	2.000000	26.889349	0.000000	4.060370	-9.348919	-4.231292	-4.508518	-7.974455	-6.304714	-2.000000	33.262772	0.000000	5.695785	-16.521883	4.296118	2.422703	8.281761	13.402905	-1.281877	4.476329	-21.801582	12.245519	-5.521215	1.247709	-3.000000	-57.286667	0.000000	-1.971092	-10.742765	51.884304	-6.749737	1.637078	22.177120	-38.914066	12.400022	-1.218112	3.000000	-9.797096	0.000000	11.957464	-2.837210	23.739351	0.041313	10.202358	-0.007174	0.041721	-19.799520	0.013842	
1.957955	39.722649	-4.368933	1.569439	-4.982022	15.670772	-8.104948	-12.404237	-1.235577	2.000000	26.724642	0.000000	4.251597	-9.502692	-4.774304	-4.843478	-8.521181	-7.061255	-2.000000	33.341187	0.000000	5.808323	-16.809303	4.727858	2.577943	8.443867	13.425699	-1.056806	4.386529	-21.818972	12.481692	-4.205112	2.526908	-3.000000	-55.415867	0.000000	-2.306902	-11.256765	50.521107	-6.525816	1.728300	22.170547	-38.087002	10.726085	-0.874426	3.000000	-9.696547	0.000000	12.285020	-2.802570	24.287775	0.041313	10.202358	-0.007174	0.041721	-19.799520	0.013842	
1.790596	39.732315	-4.535438	1.388730	-4.675200	15.603115	-7.872507	-13.054839	-1.250362	2.000000	26.717091	0.000000	4.427260	-9.348613	-4.759852	-4.850243	-8.889144	-7.508785	-2.000000	33.362164	0.000000	5.864622	-17.470602	4.746303	2.421705	8.442890	13.403050	-1.056806	4.386529	-21.818972	12.471005	-2.828835	4.187544	-3.000000	-52.769272	0.000000	-2.923726	-11.333938	48.822090	-6.525816	1.728300	22.170547	-37.123058	8.480632	-0.814418	3.000000	-9.642920	0.000000	12.690874	-2.818585	24.589243	0.041313	10.202358	-0.007174	0.041721	-19.799520	0.013842	
1.815945	39.750019	-4.707649	1.165386	-4.398170	15.521340	-7.883710	-13.515661	-1.299109	2.000000	26.583216	0.000000	4.567563	-9.421480	-4.987367	-5.104020	-9.344283	-8.168521	-2.000000	33.719833	0.000000	6.859305	-17.881573	2.639412	2.577943	8.443867	13.828531	-0.771786	4.445988	-21.831295	12.863187	-1.699788	5.465456	-3.000000	-50.224167	0.000000	-3.243955	-11.618957	47.497318	-6.362609	1.968468	22.174908	-36.318142	6.374069	-0.166428	3.000000	-9.605823	0.000000	12.791882	-3.070149	24.599880	0.041313	10.202358	-0.007174	0.041721	-19.799520	0.013842	
1.824384	39.731468	-4.873229	0.976503	-4.151733	15.509391	-7.897715	-14.068634	-1.357857	2.000000	26.563665	0.000000	4.845866	-9.023347	-4.963724	-5.104020	-9.344283	-8.732486	-2.000000	33.966751	0.000000	7.947921	-18.922070	-0.162342	2.577943	8.443867	13.828531	-0.456688	4.580095	-21.842672	13.167278	-0.059734	6.667022	-3.000000	-47.573326	0.000000	-3.496092	-11.725511	46.475719	-6.229805	2.283180	22.183397	-35.089375	4.244203	0.469586	3.000000	-9.976429	0.000000	12.791882	-3.070149	24.599880	0.041313	10.202358	-0.007174	0.041721	-19.799520	0.013842	
1.823326	39.741539	-4.657260	0.811869	-3.902132	15.471828	-7.731649	-14.072622	-1.317483	2.000000	26.620693	0.000000	4.818783	-9.103437	-5.283513	-5.679542	-9.516059	-9.736531	-2.000000	34.947235	0.000000	8.498343	-20.602299	-2.881325	2.576347	8.685563	13.828769	-0.171539	4.639501	-21.857323	13.662219	1.187598	7.680649	-3.000000	-44.742821	0.000000	-3.797359	-12.175231	45.258087	-6.066616	2.523451	22.184822	-34.073868	1.818224	1.943773	3.000000	-10.445700	0.000000	13.027935	-3.657086	24.626673	0.041558	10.324677	-0.007217	0.041431	-19.680140	0.013485	
1.780492	39.732933	-4.862979	0.715284	-3.697783	15.440049	-7.745868	-14.625744	-1.374860	2.000000	26.655096	0.000000	4.813964	-8.995440	-5.521579	-5.920312	-9.327052	-10.879065	-2.000000	35.687759	0.000000	8.916373	-21.775328	-5.839018	2.574749	8.927257	13.990147	0.128493	4.519459	-21.881277	13.993698	2.719507	8.635085	-3.000000	-42.263023	0.000000	-3.968481	-12.724135	44.142262	-5.767889	2.645103	22.171350	-33.600777	-0.099153	2.768343	3.000000	-10.837294	0.000000	13.151887	-3.872137	24.391439	0.041965	10.530039	-0.007287	0.040953	-19.482670	0.012892	
1.597622	39.758865	-4.706822	0.575210	-3.569594	15.284085	-7.329661	-14.635605	-1.269730	2.000000	26.655664	0.000000	4.975909	-9.011395	-5.508190	-6.152622	-8.771238	-11.966783	-2.000000	35.913830	0.000000	8.637604	-22.210083	-8.591306	2.573683	9.088387	14.554279	0.248870	4.818229	-21.877033	14.777115	4.426255	9.306982	-3.000000	-39.317646	0.000000	-4.394074	-13.916313	43.041969	-5.889585	2.943235	22.191330	-32.683910	-2.043525	4.274123	3.000000	-11.725420	0.000000	13.361282	-4.220862	23.917290	0.042209	10.654155	-0.007330	0.040669	-19.365088	0.012536	
1.443455	39.772568	-5.055204	0.364211	-3.406796	14.975851	-7.097549	-15.379460	-1.274683	2.000000	26.655664	0.000000	4.975909	-9.011395	-5.508190	-6.478617	-8.764060	-13.144403	-2.000000	36.743469	0.000000	7.767076	-21.984312	-10.838794	2.573683	9.088387	14.554279	0.609206	4.847478	-21.900822	15.091455	6.153584	10.379225	-3.000000	-36.627144	0.000000	-4.387372	-14.877407	41.623402	-5.651642	3.214016	22.185120	-31.796389	-4.018000	5.558513	3.000000	-12.961217	0.000000	13.661843	-4.253769	23.787931	0.042371	10.737273	-0.007358	0.040480	-19.287071	0.012298	
